<svg xmlns="http://www.w3.org/2000/svg" width="100" height="100" fill="none" stroke="currentColor" stroke-linecap="round" stroke-linejoin="round" stroke-width="5" version="1"><path style="line-height:normal;font-variant-ligatures:normal;font-variant-position:normal;font-variant-caps:normal;font-variant-numeric:normal;font-variant-alternates:normal;font-feature-settings:normal;text-indent:0;text-align:start;text-decoration-line:none;text-decoration-style:solid;text-decoration-color:#000;text-transform:none;text-orientation:mixed;shape-padding:0;isolation:auto;mix-blend-mode:normal" stroke="#000" stroke-linecap="butt" stroke-linejoin="miter" stroke-width="2" d="M50 1a49 49 0 1 0 0 98 49 49 0 0 0 0-98zm0 5a44 44 0 1 1 0 88 44 44 0 0 1 0-88zm-5 7c-3 0-3 5 0 5 20 0 37 17 37 37 0 3 5 3 5 0 0-23-19-42-42-42zM13 45c0 23 19 42 42 42 3 0 3-5 0-5-20 0-37-17-37-37 0-3-5-3-5 0z" color="#000" font-family="sans-serif" font-weight="400" overflow="visible" white-space="normal"/></svg>